<svg xmlns="http://www.w3.org/2000/svg" xmlns:xlink="http://www.w3.org/1999/xlink" width="500" zoomAndPan="magnify" viewBox="0 0 375 374.999991" height="500" preserveAspectRatio="xMidYMid meet" version="1.0"><path fill="#7b1fa2" d="M 72.917969 135.417969 L 114.582031 239.582031 L 281.25 270.832031 L 239.582031 197.917969 Z M 72.917969 135.417969 " fill-opacity="1" fill-rule="nonzero"/><path fill="#9c27b0" d="M 197.917969 83.332031 L 302.082031 375 L 375 281.25 L 260.417969 83.332031 Z M 197.917969 83.332031 " fill-opacity="1" fill-rule="nonzero"/><path fill="#4a148c" d="M 238.730469 197.59375 L 213.175781 188.019531 L 101.488281 206.84375 L 110.6875 229.855469 L 260.65625 259.011719 Z M 238.730469 197.59375 " fill-opacity="1" fill-rule="nonzero"/><path fill="#4a148c" d="M 260.417969 83.332031 L 197.917969 83.332031 L 273.5625 106.019531 Z M 260.417969 83.332031 " fill-opacity="1" fill-rule="nonzero"/><path fill="#4a148c" d="M 252.519531 236.21875 L 260.65625 259.011719 L 375 281.25 Z M 252.519531 236.21875 " fill-opacity="1" fill-rule="nonzero"/><path fill="#ce93d8" d="M 0 208.332031 L 145.832031 375 L 302.082031 375 L 375 281.25 Z M 0 208.332031 " fill-opacity="1" fill-rule="nonzero"/><path fill="#ce93d8" d="M 260.417969 0 L 260.417969 83.332031 L 375 83.332031 Z M 260.417969 0 " fill-opacity="1" fill-rule="nonzero"/><path fill="#ba68c8" d="M 145.832031 375 L 375 281.25 L 302.082031 375 Z M 145.832031 375 " fill-opacity="1" fill-rule="nonzero"/><path fill="#ba68c8" d="M 260.417969 0 L 197.917969 83.332031 L 260.417969 83.332031 Z M 260.417969 0 " fill-opacity="1" fill-rule="nonzero"/></svg>